<svg xmlns="http://www.w3.org/2000/svg" version="1.1" xmlns:xlink="http://www.w3.org/1999/xlink" xmlns:svgjs="http://svgjs.com/svgjs" width="512" height="512" x="0" y="0" viewBox="0 0 512 512" style="enable-background:new 0 0 512 512" xml:space="preserve" class=""><defs><linearGradient id="e" x1="353.933" x2="439.924" y1="104.19" y2="104.19" gradientUnits="userSpaceOnUse"><stop offset="0" stop-color="#ffa1ae"></stop><stop offset="1" stop-color="#ff4565"></stop></linearGradient><linearGradient xlink:href="#a" id="f" x1="411.891" x2="383.197" y1="78.329" y2="120.526" gradientUnits="userSpaceOnUse"></linearGradient><linearGradient xlink:href="#a" id="g" x1="408.541" x2="440.253" y1="104.19" y2="104.19" gradientUnits="userSpaceOnUse"></linearGradient><linearGradient id="h" x1="110.144" x2="332.833" y1="188.412" y2="411.101" gradientUnits="userSpaceOnUse"><stop offset="0" stop-color="#f5fbff"></stop><stop offset="1" stop-color="#dbd5ef"></stop></linearGradient><linearGradient xlink:href="#b" id="i" x1="256" x2="256" y1="388.992" y2="483.657" gradientUnits="userSpaceOnUse"></linearGradient><linearGradient xlink:href="#b" id="j" x1="231.431" x2="185.284" y1="223.326" y2="155.259" gradientUnits="userSpaceOnUse"></linearGradient><linearGradient xlink:href="#b" id="k" x1="231.431" x2="185.284" y1="223.326" y2="155.259" gradientTransform="matrix(-1 0 0 1 512 0)" gradientUnits="userSpaceOnUse"></linearGradient><linearGradient xlink:href="#b" id="l" x1="315.874" x2="447.541" y1="291.828" y2="291.828" gradientUnits="userSpaceOnUse"></linearGradient><linearGradient xlink:href="#c" id="m" x1="215.927" x2="268.996" y1="35.773" y2="291.891" gradientUnits="userSpaceOnUse"></linearGradient><linearGradient xlink:href="#c" id="m" x1="215.927" x2="268.996" y1="35.773" y2="291.891" gradientUnits="userSpaceOnUse"></linearGradient><linearGradient xlink:href="#d" id="n" x1="256" x2="256" y1="190.943" y2="30.904" gradientUnits="userSpaceOnUse"></linearGradient><linearGradient xlink:href="#d" id="o" x1="443.186" x2="501.336" y1="208.61" y2="266.759" gradientUnits="userSpaceOnUse"></linearGradient><linearGradient xlink:href="#d" id="p" x1="761.254" x2="819.403" y1="208.61" y2="266.759" gradientTransform="matrix(-1 0 0 1 830.068 0)" gradientUnits="userSpaceOnUse"></linearGradient><linearGradient xlink:href="#c" id="q" x1="185.239" x2="242.256" y1="244.243" y2="301.26" gradientUnits="userSpaceOnUse"></linearGradient><linearGradient xlink:href="#d" id="r" x1="206.167" x2="206.167" y1="247.82" y2="221.544" gradientUnits="userSpaceOnUse"></linearGradient><linearGradient xlink:href="#d" id="s" x1="193.327" x2="166.147" y1="265.171" y2="265.171" gradientUnits="userSpaceOnUse"></linearGradient><linearGradient xlink:href="#c" id="t" x1="284.905" x2="341.921" y1="244.243" y2="301.26" gradientUnits="userSpaceOnUse"></linearGradient><linearGradient xlink:href="#d" id="u" x1="305.833" x2="305.833" y1="247.82" y2="221.544" gradientUnits="userSpaceOnUse"></linearGradient><linearGradient xlink:href="#d" id="v" x1="292.992" x2="265.812" y1="265.171" y2="265.171" gradientUnits="userSpaceOnUse"></linearGradient><linearGradient xlink:href="#c" id="w" x1="185.239" x2="242.256" y1="342.206" y2="399.223" gradientUnits="userSpaceOnUse"></linearGradient><linearGradient xlink:href="#d" id="x" x1="206.167" x2="206.167" y1="345.784" y2="319.508" gradientUnits="userSpaceOnUse"></linearGradient><linearGradient xlink:href="#d" id="y" x1="193.327" x2="166.147" y1="363.135" y2="363.135" gradientUnits="userSpaceOnUse"></linearGradient><linearGradient xlink:href="#c" id="z" x1="284.905" x2="341.921" y1="342.206" y2="399.223" gradientUnits="userSpaceOnUse"></linearGradient><linearGradient xlink:href="#d" id="A" x1="305.833" x2="305.833" y1="345.784" y2="319.508" gradientUnits="userSpaceOnUse"></linearGradient><linearGradient xlink:href="#d" id="B" x1="292.992" x2="265.812" y1="363.135" y2="363.135" gradientUnits="userSpaceOnUse"></linearGradient></defs><g><linearGradient id="e" x1="353.933" x2="439.924" y1="104.19" y2="104.19" gradientUnits="userSpaceOnUse"><stop offset="0" stop-color="#ffa1ae"></stop><stop offset="1" stop-color="#ff4565"></stop></linearGradient><linearGradient id="a"><stop offset="0" stop-color="#fe0364" stop-opacity="0"></stop><stop offset=".234" stop-color="#f90362" stop-opacity=".234"></stop><stop offset=".517" stop-color="#ea035b" stop-opacity=".517"></stop><stop offset=".824" stop-color="#d20250" stop-opacity=".824"></stop><stop offset="1" stop-color="#c00148"></stop></linearGradient><linearGradient xlink:href="#a" id="f" x1="411.891" x2="383.197" y1="78.329" y2="120.526" gradientUnits="userSpaceOnUse"></linearGradient><linearGradient xlink:href="#a" id="g" x1="408.541" x2="440.253" y1="104.19" y2="104.19" gradientUnits="userSpaceOnUse"></linearGradient><linearGradient id="h" x1="110.144" x2="332.833" y1="188.412" y2="411.101" gradientUnits="userSpaceOnUse"><stop offset="0" stop-color="#f5fbff"></stop><stop offset="1" stop-color="#dbd5ef"></stop></linearGradient><linearGradient id="b"><stop offset="0" stop-color="#dbd5ef" stop-opacity="0"></stop><stop offset=".285" stop-color="#d9d2ee" stop-opacity=".285"></stop><stop offset=".474" stop-color="#d4c9e9" stop-opacity=".474"></stop><stop offset=".635" stop-color="#cbbae2" stop-opacity=".635"></stop><stop offset=".779" stop-color="#bfa5d7" stop-opacity=".78"></stop><stop offset=".913" stop-color="#af8aca" stop-opacity=".913"></stop><stop offset="1" stop-color="#a274bf"></stop></linearGradient><linearGradient xlink:href="#b" id="i" x1="256" x2="256" y1="388.992" y2="483.657" gradientUnits="userSpaceOnUse"></linearGradient><linearGradient xlink:href="#b" id="j" x1="231.431" x2="185.284" y1="223.326" y2="155.259" gradientUnits="userSpaceOnUse"></linearGradient><linearGradient xlink:href="#b" id="k" x1="231.431" x2="185.284" y1="223.326" y2="155.259" gradientTransform="matrix(-1 0 0 1 512 0)" gradientUnits="userSpaceOnUse"></linearGradient><linearGradient xlink:href="#b" id="l" x1="315.874" x2="447.541" y1="291.828" y2="291.828" gradientUnits="userSpaceOnUse"></linearGradient><linearGradient id="c"><stop offset="0" stop-color="#b3dafe"></stop><stop offset="1" stop-color="#0182fc"></stop></linearGradient><linearGradient xlink:href="#c" id="m" x1="215.927" x2="268.996" y1="35.773" y2="291.891" gradientUnits="userSpaceOnUse"></linearGradient><linearGradient id="d"><stop offset="0" stop-color="#314dc9" stop-opacity="0"></stop><stop offset=".276" stop-color="#304bc4" stop-opacity=".276"></stop><stop offset=".563" stop-color="#2b45b8" stop-opacity=".563"></stop><stop offset=".854" stop-color="#243ba3" stop-opacity=".854"></stop><stop offset="1" stop-color="#1f3596"></stop></linearGradient><linearGradient xlink:href="#d" id="n" x1="256" x2="256" y1="190.943" y2="30.904" gradientUnits="userSpaceOnUse"></linearGradient><linearGradient xlink:href="#d" id="o" x1="443.186" x2="501.336" y1="208.61" y2="266.759" gradientUnits="userSpaceOnUse"></linearGradient><linearGradient xlink:href="#d" id="p" x1="761.254" x2="819.403" y1="208.61" y2="266.759" gradientTransform="matrix(-1 0 0 1 830.068 0)" gradientUnits="userSpaceOnUse"></linearGradient><linearGradient xlink:href="#c" id="q" x1="185.239" x2="242.256" y1="244.243" y2="301.26" gradientUnits="userSpaceOnUse"></linearGradient><linearGradient xlink:href="#d" id="r" x1="206.167" x2="206.167" y1="247.82" y2="221.544" gradientUnits="userSpaceOnUse"></linearGradient><linearGradient xlink:href="#d" id="s" x1="193.327" x2="166.147" y1="265.171" y2="265.171" gradientUnits="userSpaceOnUse"></linearGradient><linearGradient xlink:href="#c" id="t" x1="284.905" x2="341.921" y1="244.243" y2="301.26" gradientUnits="userSpaceOnUse"></linearGradient><linearGradient xlink:href="#d" id="u" x1="305.833" x2="305.833" y1="247.82" y2="221.544" gradientUnits="userSpaceOnUse"></linearGradient><linearGradient xlink:href="#d" id="v" x1="292.992" x2="265.812" y1="265.171" y2="265.171" gradientUnits="userSpaceOnUse"></linearGradient><linearGradient xlink:href="#c" id="w" x1="185.239" x2="242.256" y1="342.206" y2="399.223" gradientUnits="userSpaceOnUse"></linearGradient><linearGradient xlink:href="#d" id="x" x1="206.167" x2="206.167" y1="345.784" y2="319.508" gradientUnits="userSpaceOnUse"></linearGradient><linearGradient xlink:href="#d" id="y" x1="193.327" x2="166.147" y1="363.135" y2="363.135" gradientUnits="userSpaceOnUse"></linearGradient><linearGradient xlink:href="#c" id="z" x1="284.905" x2="341.921" y1="342.206" y2="399.223" gradientUnits="userSpaceOnUse"></linearGradient><linearGradient xlink:href="#d" id="A" x1="305.833" x2="305.833" y1="345.784" y2="319.508" gradientUnits="userSpaceOnUse"></linearGradient><linearGradient xlink:href="#d" id="B" x1="292.992" x2="265.812" y1="363.135" y2="363.135" gradientUnits="userSpaceOnUse"></linearGradient><path fill="url(&quot;#e&quot;)" d="M439.306 174.283h-96.14V47.145c0-7.206 5.842-13.047 13.047-13.047h70.045c7.206 0 13.047 5.842 13.047 13.047v127.138z" data-original="url(#e)"></path><path fill="url(&quot;#f&quot;)" d="M439.306 174.283h-96.14V47.145c0-7.206 5.842-13.047 13.047-13.047h70.045c7.206 0 13.047 5.842 13.047 13.047v127.138z" data-original="url(#f)"></path><path fill="url(&quot;#g&quot;)" d="M439.307 47.145v127.134h-59.221V34.101h46.177c7.197 0 13.044 5.836 13.044 13.044z" data-original="url(#g)" class=""></path><path fill="url(&quot;#h&quot;)" d="M442.075 204.978v248.434c0 13.526-10.965 24.491-24.491 24.491H94.416c-13.526 0-24.491-10.965-24.491-24.491V204.978l134.056-99.225h104.038z" data-original="url(#h)"></path><path fill="url(&quot;#i&quot;)" d="M69.925 314.156v139.256c0 13.526 10.965 24.491 24.491 24.491h323.168c13.526 0 24.491-10.965 24.491-24.491V314.156z" data-original="url(#i)" class=""></path><path fill="url(&quot;#j&quot;)" d="M442.079 204.978v109.175H69.921V204.978l134.065-99.227h104.028z" data-original="url(#j)"></path><path fill="url(&quot;#k&quot;)" d="M69.921 204.978v109.175h372.158V204.978l-134.065-99.227H203.986z" data-original="url(#k)" class=""></path><path fill="url(&quot;#l&quot;)" d="M256 105.753v372.15h161.584c13.526 0 24.491-10.965 24.491-24.491V204.978l-134.056-99.225z" data-original="url(#l)" class=""></path><path fill="url(&quot;#m&quot;)" d="m266.207 113.794 192.286 142.325c15.72 11.636 38.02 7.411 48.395-9.168 9.29-14.846 5.597-34.34-8.479-44.76L283.613 43.205c-16.406-12.144-38.82-12.144-55.227 0L13.591 202.191c-14.077 10.419-17.77 29.914-8.479 44.76 10.375 16.579 32.675 20.804 48.395 9.168l192.286-142.325a17.156 17.156 0 0 1 20.414 0z" data-original="url(#m)"></path><path fill="url(&quot;#m&quot;)" d="m266.207 113.794 192.286 142.325c15.72 11.636 38.02 7.411 48.395-9.168 9.29-14.846 5.597-34.34-8.479-44.76L283.613 43.205c-16.406-12.144-38.82-12.144-55.227 0L13.591 202.191c-14.077 10.419-17.77 29.914-8.479 44.76 10.375 16.579 32.675 20.804 48.395 9.168l192.286-142.325a17.156 17.156 0 0 1 20.414 0z" data-original="url(#m)"></path><path fill="url(&quot;#n&quot;)" d="M506.754 247.153 283.613 81.99c-16.406-12.143-38.82-12.143-55.227 0L5.246 247.153c10.43 16.408 32.607 20.553 48.261 8.966l192.286-142.325a17.156 17.156 0 0 1 20.414 0l192.286 142.325c15.655 11.587 37.831 7.441 48.261-8.966z" data-original="url(#n)"></path><path fill="url(&quot;#o&quot;)" d="m343.165 170.756 115.327 85.362c15.72 11.636 38.02 7.411 48.395-9.168 9.29-14.846 5.597-34.34-8.479-44.76l-107.276-79.403z" data-original="url(#o)" class=""></path><path fill="url(&quot;#p&quot;)" d="M168.835 170.756 53.507 256.119c-15.72 11.636-38.02 7.411-48.395-9.168-9.29-14.846-5.597-34.34 8.479-44.76l107.275-79.403z" data-original="url(#p)"></path><path fill="url(&quot;#q&quot;)" d="M232.287 302.504h-52.239c-6.193 0-11.213-5.02-11.213-11.213v-52.239c0-6.193 5.02-11.213 11.213-11.213h52.239c6.193 0 11.213 5.02 11.213 11.213v52.239c0 6.192-5.02 11.213-11.213 11.213z" data-original="url(#q)"></path><path fill="url(&quot;#r&quot;)" d="M232.287 302.504h-52.239c-6.193 0-11.213-5.02-11.213-11.213v-52.239c0-6.193 5.02-11.213 11.213-11.213h52.239c6.193 0 11.213 5.02 11.213 11.213v52.239c0 6.192-5.02 11.213-11.213 11.213z" data-original="url(#r)"></path><path fill="url(&quot;#s&quot;)" d="M232.287 302.504h-52.239c-6.193 0-11.213-5.02-11.213-11.213v-52.239c0-6.193 5.02-11.213 11.213-11.213h52.239c6.193 0 11.213 5.02 11.213 11.213v52.239c0 6.192-5.02 11.213-11.213 11.213z" data-original="url(#s)"></path><path fill="url(&quot;#t&quot;)" d="M331.952 302.504h-52.239c-6.193 0-11.213-5.02-11.213-11.213v-52.239c0-6.193 5.02-11.213 11.213-11.213h52.239c6.193 0 11.213 5.02 11.213 11.213v52.239c0 6.192-5.02 11.213-11.213 11.213z" data-original="url(#t)"></path><path fill="url(&quot;#u&quot;)" d="M331.952 302.504h-52.239c-6.193 0-11.213-5.02-11.213-11.213v-52.239c0-6.193 5.02-11.213 11.213-11.213h52.239c6.193 0 11.213 5.02 11.213 11.213v52.239c0 6.192-5.02 11.213-11.213 11.213z" data-original="url(#u)"></path><path fill="url(&quot;#v&quot;)" d="M331.952 302.504h-52.239c-6.193 0-11.213-5.02-11.213-11.213v-52.239c0-6.193 5.02-11.213 11.213-11.213h52.239c6.193 0 11.213 5.02 11.213 11.213v52.239c0 6.192-5.02 11.213-11.213 11.213z" data-original="url(#v)" class=""></path><path fill="url(&quot;#w&quot;)" d="M232.287 400.467h-52.239c-6.193 0-11.213-5.02-11.213-11.213v-52.239c0-6.193 5.02-11.213 11.213-11.213h52.239c6.193 0 11.213 5.02 11.213 11.213v52.239c0 6.193-5.02 11.213-11.213 11.213z" data-original="url(#w)"></path><path fill="url(&quot;#x&quot;)" d="M232.287 400.467h-52.239c-6.193 0-11.213-5.02-11.213-11.213v-52.239c0-6.193 5.02-11.213 11.213-11.213h52.239c6.193 0 11.213 5.02 11.213 11.213v52.239c0 6.193-5.02 11.213-11.213 11.213z" data-original="url(#x)"></path><path fill="url(&quot;#y&quot;)" d="M232.287 400.467h-52.239c-6.193 0-11.213-5.02-11.213-11.213v-52.239c0-6.193 5.02-11.213 11.213-11.213h52.239c6.193 0 11.213 5.02 11.213 11.213v52.239c0 6.193-5.02 11.213-11.213 11.213z" data-original="url(#y)"></path><path fill="url(&quot;#z&quot;)" d="M331.952 400.467h-52.239c-6.193 0-11.213-5.02-11.213-11.213v-52.239c0-6.193 5.02-11.213 11.213-11.213h52.239c6.193 0 11.213 5.02 11.213 11.213v52.239c0 6.193-5.02 11.213-11.213 11.213z" data-original="url(#z)"></path><path fill="url(&quot;#A&quot;)" d="M331.952 400.467h-52.239c-6.193 0-11.213-5.02-11.213-11.213v-52.239c0-6.193 5.02-11.213 11.213-11.213h52.239c6.193 0 11.213 5.02 11.213 11.213v52.239c0 6.193-5.02 11.213-11.213 11.213z" data-original="url(#A)"></path><path fill="url(&quot;#B&quot;)" d="M331.952 400.467h-52.239c-6.193 0-11.213-5.02-11.213-11.213v-52.239c0-6.193 5.02-11.213 11.213-11.213h52.239c6.193 0 11.213 5.02 11.213 11.213v52.239c0 6.193-5.02 11.213-11.213 11.213z" data-original="url(#B)"></path></g></svg>